<?xml version="1.0" encoding="iso-8859-1"?>
<!-- Uploaded to: SVG Repo, www.svgrepo.com, Generator: SVG Repo Mixer Tools -->
<svg fill="#000000" height="800px" width="800px" version="1.1" id="Layer_1" xmlns="http://www.w3.org/2000/svg" xmlns:xlink="http://www.w3.org/1999/xlink" 
	 viewBox="0 0 512 512" xml:space="preserve">
<g>
	<g>
		<path d="M157.867,236.459H21.333C9.574,236.459,0,246.033,0,257.792v8.533c0,11.759,9.574,21.333,21.333,21.333h136.533
			c11.759,0,21.333-9.566,21.333-21.333v-8.533C179.2,246.033,169.626,236.459,157.867,236.459z M162.133,266.325
			c0,2.313-1.954,4.267-4.267,4.267H21.333c-2.313,0-4.267-1.954-4.267-4.267v-8.533c0-2.313,1.954-4.267,4.267-4.267h136.533
			c2.313,0,4.267,1.954,4.267,4.267V266.325z"/>
	</g>
</g>
<g>
	<g>
		<path d="M490.667,236.459H473.6c-11.759,0-21.333,9.574-21.333,21.333v8.533c0,11.759,9.574,21.333,21.333,21.333h17.067
			c11.759,0,21.333-9.574,21.333-21.333v-8.533C512,246.033,502.426,236.459,490.667,236.459z M494.933,266.325
			c0,2.313-1.954,4.267-4.267,4.267H473.6c-2.313,0-4.267-1.954-4.267-4.267v-8.533c0-2.313,1.954-4.267,4.267-4.267h17.067
			c2.313,0,4.267,1.954,4.267,4.267V266.325z"/>
	</g>
</g>
<g>
	<g>
		<path d="M405.333,236.459h-17.067c-11.759,0-21.333,9.574-21.333,21.333v8.533c0,11.759,9.574,21.333,21.333,21.333h17.067
			c11.759,0,21.333-9.574,21.333-21.333v-8.533C426.667,246.033,417.092,236.459,405.333,236.459z M409.6,266.325
			c0,2.313-1.954,4.267-4.267,4.267h-17.067c-2.313,0-4.267-1.954-4.267-4.267v-8.533c0-2.313,1.954-4.267,4.267-4.267h17.067
			c2.313,0,4.267,1.954,4.267,4.267V266.325z"/>
	</g>
</g>
<g>
	<g>
		<path d="M310.076,76.066l-9.25-3.763c-10.897-4.429-23.364,0.836-27.793,11.733L141.269,408.141
			c-4.429,10.897,0.836,23.364,11.725,27.793l9.25,3.763c2.62,1.067,5.333,1.57,8.004,1.57c8.422,0,16.427-5.026,19.789-13.295
			l131.763-324.113C326.229,92.962,320.973,80.486,310.076,76.066z M305.997,97.433L174.234,421.538
			c-0.87,2.142-3.405,3.217-5.555,2.347l-9.25-3.763c-1.408-0.572-2.048-1.69-2.313-2.304c-0.265-0.614-0.606-1.852-0.034-3.26
			L288.836,90.462c0.666-1.638,2.313-2.654,4.002-2.654c0.521,0,1.05,0.094,1.553,0.299l9.25,3.763
			C305.792,92.74,306.867,95.292,305.997,97.433z"/>
	</g>
</g>
<g>
	<g>
		<path d="M320,236.459h-17.067c-11.759,0-21.333,9.574-21.333,21.333v8.533c0,11.759,9.574,21.333,21.333,21.333H320
			c11.759,0,21.333-9.574,21.333-21.333v-8.533C341.333,246.033,331.759,236.459,320,236.459z M324.267,266.325
			c0,2.313-1.954,4.267-4.267,4.267h-17.067c-2.313,0-4.267-1.954-4.267-4.267v-8.533c0-2.313,1.954-4.267,4.267-4.267H320
			c2.313,0,4.267,1.954,4.267,4.267V266.325z"/>
	</g>
</g>
</svg>